<svg height="24" viewBox="0 0 24 24" width="24" xmlns="http://www.w3.org/2000/svg"><path d="m6.078 12c0-3.266 2.656-5.922 5.922-5.922 2.107 0 4.072 1.134 5.129 2.959l-1.499.867 5.027-2.902c-.14-.242-.332-.453-.543-.575l-7.345-4.24c-.424-.245-1.116-.245-1.539 0l-7.345 4.24c-.422.244-.768.844-.768 1.333v8.48c0 .245.086.517.226.758l3.529-2.038c-.505-.871-.794-1.882-.794-2.96z"/><path d="m14.564 10.519c-.528-.913-1.511-1.48-2.564-1.48-1.633 0-2.961 1.328-2.961 2.961 0 .539.146 1.044.397 1.48l2.564-1.48z"/><path d="m20.657 7.002-5.046 2.913-1.046.605s0 0-.001-.001l-2.564 1.481-2.563 1.48c.513.884 1.47 1.481 2.563 1.481 1.054 0 2.037-.567 2.565-1.481l2.563 1.483c-1.057 1.825-3.021 2.959-5.129 2.959-2.188 0-4.103-1.193-5.128-2.962l-3.529 2.038c.14.242.332.453.543.575l7.345 4.24c.423.245 1.115.245 1.539 0l7.345-4.24c.211-.122.403-.333.543-.575.14-.241.226-.513.226-.758v-8.48c0-.245-.086-.517-.226-.758zm-2.735 5.327h-.658v.658h-.657v-.658h-.658v-.658h.658v-.658h.657v.658h.658zm2.468 0h-.658v.658h-.658v-.658h-.657v-.658h.657v-.658h.658v.658h.658z"/></svg>