<svg enable-background="new 0 0 1024 1024" height="1024" image-rendering="optimizeSpeed" viewBox="0 0 1024 1024" width="1024" xmlns="http://www.w3.org/2000/svg"><path d="m969.6 351.25q-8.6-20.85-19.4-40.85c-4.05-7.55-8.35-15.05-12.9-22.4-19.55-31.7-43.4-61.65-71.55-89.8-92.15-92.15-203.45-138.25-333.8-138.25s-241.6 46.1-333.75 138.25-138.25 203.4-138.25 333.75 46.1 241.65 138.25 333.8 203.4 138.2 333.75 138.2 241.65-46.05 333.8-138.2c50.75-50.8 87.55-107.4 110.35-169.75 18.55-50.85 27.85-105.5 27.85-164.05 0-44.9-5.45-87.55-16.4-127.95-1.25-4.55-2.55-9.1-3.9-13.6-4.1-13.3-8.8-26.35-14.05-39.15z" fill-opacity=".098039"/><path d="m969.7 392c-1.1-4.35-2.35-9-3.65-13.6-1-3.4-2-6.85-3.15-10.5-1.6-5.15-3.4-10.5-5.3-15.85-6.45-18.25-14.15-36.05-23.15-53.65-3.8-7.4-7.95-14.95-12.3-22.4-20.3-34.5-45.8-67.2-76.35-97.75-72.6-72.6-157.15-116.65-253.65-132.05-16.25-2.6-32.8-4.4-50.05-5.35-9.9-.55-19.9-.85-29.95-.85v472.1h471.85c0-.05 0-.05 0-.1 0-.65 0-1.35 0-2 0-.35 0-.65 0-1-.2-40.65-4.95-79.5-14.3-117zm-459.55 120.1h-470.15c.05 130.35 46.1 241.55 138.25 333.7 56.7 56.65 120.55 95.9 191.1 117.55 36.75 11.25 74.8 17.85 114.75 19.95h.4c8.5.45 16.6.7 24.5.7h1.15z" fill="#505a44"/><path d="m983.7 530.5c.2-6.1.3-12.25.3-18.4h-471.85v-472.1c-.05 0-.1 0-.15 0-9.35 0-18.6.25-27.9.75-118.35 6.1-220.3 51.95-305.85 137.5q-138.25 138.25-138.25 333.75v.1h470.15v471.9h1.85.15c10.1 0 20.1-.25 29.95-.8 2.5-.15 4.75-.3 6.95-.45 20.2-1.45 39.9-4.05 58.7-7.7 7.95-1.55 15.8-3.3 23.4-5.15 80.8-20.3 152.15-61.6 214.65-124.1 48.6-48.6 84.4-102.5 107.35-161.8 18.45-47.65 28.65-98.8 30.55-153.5z" fill="#3c4333"/><path d="m697.2 359-46-46-463.15 270.95 395.2 395.2c8.45-1.2 16.55-2.55 24.5-4.1s15.8-3.3 23.4-5.15c80.8-20.3 152.15-61.6 214.65-124.1 48.6-48.6 84.4-102.5 107.35-161.8 18.45-47.65 28.65-98.8 30.55-153.5.2-6.1.3-12.25.3-18.4 0-.05 0-.05 0-.1 0-.65 0-1.35 0-2 0-.35 0-.65 0-1q-.028-4.915-.15-9.8l-80.85-80.85-87.35 24.6-81.95-81.95z" fill-opacity=".2"/><path d="m755.15 579.15c-2.55 2.3-5.15 4.6-7.8 6.85-1.95 1.65-3.9 3.25-5.85 4.8-8.65 6.95-18.1 13.65-28.25 20.2-20.9 13.4-43.15 24.75-66.85 34.1l55.6 17.9c15.7 3.15 25.9.95 30.65-6.6l36.3-58c2.85-5.6 1.7-15.2-3.55-29.2-2.1 2.2-4.3 4.4-6.6 6.55-1.2 1.15-2.4 2.25-3.65 3.4zm-103.75 128.25c7.65-3 8.3-9 2-18l-29-36.4c-3.55 1.1-7.35 2.3-11.15 3.45-41.75 12.45-87.3 19.05-136.8 19.8l41.95 30.15c21.35 16.35 65.65 16.7 133 1zm251.8-195.3c0-.05 0-.05 0-.1h-99.45c0 .05 0 .1.05.15-2.65 6.5-6.15 13.55-10.15 20.35-4.7 8-10.15 15.8-16.45 23.5 4.35-4.4 8.65-4.4 13 0l63 63c32.55 34.1 49.25-1.5 50-106.8l-.7-.05z" fill="#c3bfae"/><path d="m653.2 331c6.3-9 5.65-15-2-18-67.35-15.7-111.65-15.35-133 1l-47.3 34c8.75.1 17.15.3 25.3.7 42 2 80.95 8.35 117.05 19.15 2.95.9 5.9 1.8 8.5 2.65zm80.5 30c-4.75-7.55-14.95-9.75-30.65-6.6l-66.05 21.3c27.15 9.85 52.55 22.4 76.25 37.6 10.15 6.55 19.6 13.25 28.25 20.2 1.95 1.55 3.9 3.15 5.85 4.8q4 3.4 7.8 6.85c1.25 1.15 2.45 2.25 3.65 3.4 1.9 1.8 3.75 3.65 5.35 5.3 7.15-16.85 9.1-28.45 5.85-34.85zm56.5 107.3c-4.35 4.4-8.65 4.4-13 0 6.3 7.7 11.75 15.5 16.45 23.5 3.85 6.6 7.25 13.35 10.1 20.2h99.45c-.75-105.25-17.45-140.8-50-106.7z" fill="#959286"/><path d="m755.15 445.15q-3.8-3.45-7.8-6.85c-1.95-1.65-3.9-3.25-5.85-4.8-8.65-6.95-18.1-13.65-28.25-20.2-23.7-15.2-49.1-27.75-76.25-37.6-5.05-1.85-10.1-3.55-15.25-5.2-2.6-.85-5.55-1.75-8.5-2.65-36.1-10.8-75.05-17.15-117.05-19.15-8.15-.4-16.55-.6-25.3-.7-1.1 0-2.4 0-3.7 0-9.75 0-19.35.2-29 .7-26.45 1.25-51.9 4.25-76.25 9.1-19.15 3.8-37.6 8.7-55.3 14.65-30.7 10.35-59.2 23.95-85.55 40.85-27.05 17.35-48.75 36.15-65 56.35-2.85 3.55-5.55 7.1-8.05 10.7-4.45 7.8-6.65 16.5-6.65 26.15 0 1.85.1 3.7.3 5.5h-.025.025 662.05c-2.85-6.85-6.25-13.6-10.1-20.2-4.7-8-10.15-15.8-16.45-23.5-3.9-4.8-8.2-9.6-13.05-14.45-1.6-1.65-3.45-3.5-5.35-5.3-1.2-1.15-2.4-2.25-3.65-3.4z" fill="#c3bfae"/><path d="m793.65 532.5c4-6.8 7.5-13.85 10.15-20.35-.05-.05-.05-.1-.05-.15h-662.05v.15c-.2 1.7-.3 3.65-.3 5.65 0 9.65 2.2 18.35 6.65 26.15 2.5 3.6 5.2 7.15 8.05 10.7 16.25 20.2 37.95 39 65 56.35 67.95 43.55 150 65.3 246.1 65.3 3.15 0 6.3 0 9.25-.05 49.5-.75 95.05-7.35 136.8-19.8 3.8-1.15 7.6-2.35 11.15-3.45 7.5-2.45 14.85-5.1 22-7.9 23.7-9.35 45.95-20.7 66.85-34.1 10.15-6.55 19.6-13.25 28.25-20.2 1.95-1.55 3.9-3.15 5.85-4.8 2.65-2.25 5.25-4.55 7.8-6.85 1.25-1.15 2.45-2.25 3.65-3.4 2.3-2.15 4.5-4.35 6.6-6.55 4.25-4.4 8.2-8.8 11.8-13.2 6.3-7.7 11.75-15.5 16.45-23.5z" fill="#959286"/><path d="m288.375 487.625q-11.149-11.152-26.875-11.15v.025c-10.5-.05-19.45 3.7-26.85 11.15-7.45 7.4-11.2 16.35-11.15 26.85-.05 10.5 3.7 19.45 11.15 26.9 7.4 7.45 16.35 11.15 26.85 11.15s19.45-3.7 26.9-11.15 11.15-16.4 11.15-26.9-3.7-19.45-11.15-26.85m-5.9 26.85c-.05 5.75-2.1 10.7-6.15 14.85-4.15 4.05-9.1 6.1-14.85 6.15-5.75-.05-10.7-2.1-14.8-6.15-4.1-4.15-6.15-9.1-6.15-14.85s2.05-10.7 6.15-14.8 9.05-6.15 14.8-6.15 10.7 2.05 14.85 6.15c4.05 4.1 6.1 9.05 6.15 14.8z" fill="#636158"/><path d="m282.5 514.5c-.05-5.75-2.1-10.7-6.15-14.8-4.15-4.1-9.1-6.15-14.85-6.15s-10.7 2.05-14.8 6.15-6.15 9.05-6.15 14.8 2.05 10.7 6.15 14.85c4.1 4.05 9.05 6.1 14.8 6.15 5.75-.05 10.7-2.1 14.85-6.15 4.05-4.15 6.1-9.1 6.15-14.85z" fill="#fff"/><path d="m392 420.4c-5.7-5.7-12.6-8.55-20.65-8.55-3.1 0-6 .4-8.75 1.25 4.35 1.35 8.3 3.8 11.8 7.3 5.7 5.7 8.55 12.6 8.55 20.65s-2.85 14.95-8.55 20.65c-3.5 3.5-7.45 5.9-11.8 7.25 2.75.85 5.65 1.3 8.75 1.3 8.05 0 14.95-2.85 20.65-8.55 5.75-5.7 8.6-12.6 8.6-20.65s-2.85-14.95-8.6-20.65zm126.4 0c-5.7-5.7-12.6-8.55-20.65-8.55-3.1 0-6 .4-8.75 1.25 4.35 1.35 8.3 3.8 11.8 7.3 5.7 5.7 8.55 12.6 8.55 20.65s-2.85 14.95-8.55 20.65c-3.5 3.5-7.45 5.9-11.8 7.25 2.75.85 5.65 1.3 8.75 1.3 8.05 0 14.95-2.85 20.65-8.55 5.75-5.7 8.6-12.6 8.6-20.65s-2.85-14.95-8.6-20.65zm126.4 0c-5.7-5.7-12.6-8.55-20.65-8.55-3.1 0-6 .4-8.75 1.25 4.35 1.35 8.3 3.8 11.8 7.3 5.7 5.7 8.55 12.6 8.55 20.65s-2.85 14.95-8.55 20.65c-3.5 3.5-7.45 5.9-11.8 7.25 2.75.85 5.65 1.3 8.75 1.3 8.05 0 14.95-2.85 20.65-8.55 5.75-5.7 8.6-12.6 8.6-20.65s-2.85-14.95-8.6-20.65zm-210.25 26.95c-3.1 0-6 .4-8.75 1.25 4.35 1.35 8.3 3.8 11.8 7.3 5.7 5.7 8.55 12.6 8.55 20.65s-2.85 14.95-8.55 20.65c-3.5 3.5-7.45 5.9-11.8 7.25 2.75.85 5.65 1.3 8.75 1.3 8.05 0 14.95-2.85 20.65-8.55 5.75-5.7 8.6-12.6 8.6-20.65s-2.85-14.95-8.6-20.65c-5.7-5.7-12.6-8.55-20.65-8.55zm155.65 29.2c0-8.05-2.85-14.95-8.6-20.65-5.7-5.7-12.6-8.55-20.65-8.55-3.1 0-6 .4-8.75 1.25 4.35 1.35 8.3 3.8 11.8 7.3 5.7 5.7 8.55 12.6 8.55 20.65s-2.85 14.95-8.55 20.65c-3.5 3.5-7.45 5.9-11.8 7.25 2.75.85 5.65 1.3 8.75 1.3 8.05 0 14.95-2.85 20.65-8.55 5.75-5.7 8.6-12.6 8.6-20.65zm97.15-29.2q-4.65 0-8.75 1.25c4.35 1.35 8.3 3.8 11.8 7.3 5.7 5.7 8.55 12.6 8.55 20.65s-2.85 14.95-8.55 20.65c-3.5 3.5-7.45 5.9-11.8 7.25 2.75.85 5.65 1.3 8.75 1.3 8.05 0 14.95-2.85 20.65-8.55 5.75-5.7 8.6-12.6 8.6-20.65s-2.85-14.95-8.6-20.65c-5.7-5.7-12.6-8.55-20.65-8.55zm-42.55 44c-5.7-5.7-12.6-8.55-20.65-8.55-3.1 0-6 .4-8.75 1.25 4.35 1.35 8.3 3.8 11.8 7.3 5.7 5.7 8.55 12.6 8.55 20.65h17.65c0-8.05-2.85-14.95-8.6-20.65zm-126.4 0c-5.7-5.7-12.6-8.55-20.65-8.55-3.1 0-6 .4-8.75 1.25 4.35 1.35 8.3 3.8 11.8 7.3 5.7 5.7 8.55 12.6 8.55 20.65h17.65c0-8.05-2.85-14.95-8.6-20.65zm-126.4 0c-5.7-5.7-12.6-8.55-20.65-8.55-3.1 0-6 .4-8.75 1.25 4.35 1.35 8.3 3.8 11.8 7.3 5.7 5.7 8.55 12.6 8.55 20.65h17.65c0-8.05-2.85-14.95-8.6-20.65z" fill="#afab9c"/><path d="m392 562.3c-5.7-5.75-12.6-8.6-20.65-8.6-3.1 0-6 .45-8.75 1.3 4.35 1.35 8.3 3.8 11.8 7.3 5.7 5.7 8.55 12.6 8.55 20.65s-2.85 14.95-8.55 20.65c-3.5 3.5-7.45 5.9-11.8 7.25 2.75.85 5.65 1.3 8.75 1.3 8.05 0 14.95-2.85 20.65-8.55 5.75-5.7 8.6-12.6 8.6-20.65s-2.85-14.95-8.6-20.65zm126.4 0c-5.7-5.75-12.6-8.6-20.65-8.6-3.1 0-6 .45-8.75 1.3 4.35 1.35 8.3 3.8 11.8 7.3 5.7 5.7 8.55 12.6 8.55 20.65s-2.85 14.95-8.55 20.65c-3.5 3.5-7.45 5.9-11.8 7.25 2.75.85 5.65 1.3 8.75 1.3 8.05 0 14.95-2.85 20.65-8.55 5.75-5.7 8.6-12.6 8.6-20.65s-2.85-14.95-8.6-20.65zm126.4 0c-5.7-5.75-12.6-8.6-20.65-8.6-3.1 0-6 .45-8.75 1.3 4.35 1.35 8.3 3.8 11.8 7.3 5.7 5.7 8.55 12.6 8.55 20.65s-2.85 14.95-8.55 20.65c-3.5 3.5-7.45 5.9-11.8 7.25 2.75.85 5.65 1.3 8.75 1.3 8.05 0 14.95-2.85 20.65-8.55 5.75-5.7 8.6-12.6 8.6-20.65s-2.85-14.95-8.6-20.65zm-210.25-44.05c-3.1 0-6 .45-8.75 1.3 4.35 1.35 8.3 3.8 11.8 7.3 5.7 5.7 8.55 12.6 8.55 20.65s-2.85 14.95-8.55 20.65c-3.5 3.5-7.45 5.9-11.8 7.25 2.75.85 5.65 1.3 8.75 1.3 8.05 0 14.95-2.85 20.65-8.55 5.75-5.7 8.6-12.6 8.6-20.65s-2.85-14.95-8.6-20.65c-5.7-5.75-12.6-8.6-20.65-8.6zm126.4 0c-3.1 0-6 .45-8.75 1.3 4.35 1.35 8.3 3.8 11.8 7.3 5.7 5.7 8.55 12.6 8.55 20.65s-2.85 14.95-8.55 20.65c-3.5 3.5-7.45 5.9-11.8 7.25 2.75.85 5.65 1.3 8.75 1.3 8.05 0 14.95-2.85 20.65-8.55 5.75-5.7 8.6-12.6 8.6-20.65s-2.85-14.95-8.6-20.65c-5.7-5.75-12.6-8.6-20.65-8.6zm126.4 0c-3.1 0-6 .45-8.75 1.3 4.35 1.35 8.3 3.8 11.8 7.3 5.7 5.7 8.55 12.6 8.55 20.65s-2.85 14.95-8.55 20.65c-3.5 3.5-7.45 5.9-11.8 7.25 2.75.85 5.65 1.3 8.75 1.3 8.05 0 14.95-2.85 20.65-8.55 5.75-5.7 8.6-12.6 8.6-20.65s-2.85-14.95-8.6-20.65c-5.7-5.75-12.6-8.6-20.65-8.6zm-51.6-6.25c0 8.05-2.85 14.95-8.55 20.65-3.5 3.5-7.45 5.9-11.8 7.25 2.75.85 5.65 1.3 8.75 1.3 8.05 0 14.95-2.85 20.65-8.55 5.75-5.7 8.6-12.6 8.6-20.65zm-126.4 0c0 8.05-2.85 14.95-8.55 20.65-3.5 3.5-7.45 5.9-11.8 7.25 2.75.85 5.65 1.3 8.75 1.3 8.05 0 14.95-2.85 20.65-8.55 5.75-5.7 8.6-12.6 8.6-20.65zm-108.75 0h-17.65c0 8.05-2.85 14.95-8.55 20.65-3.5 3.5-7.45 5.9-11.8 7.25 2.75.85 5.65 1.3 8.75 1.3 8.05 0 14.95-2.85 20.65-8.55 5.75-5.7 8.6-12.6 8.6-20.65z" fill="#636158"/></svg>